<?xml version="1.0" encoding="utf-8"?>
<!-- Generator: Adobe Illustrator 27.0.0, SVG Export Plug-In . SVG Version: 6.00 Build 0)  -->
<svg version="1.1" id="Layer_1" xmlns="http://www.w3.org/2000/svg" xmlns:xlink="http://www.w3.org/1999/xlink" x="0px" y="0px"
	 viewBox="0 0 906.83 247.72" style="enable-background:new 0 0 906.83 247.72;" xml:space="preserve">
<style type="text/css">
	.st0{fill:#C81E23;}
</style>
<g>
	<g>
		<polygon points="392.13,24.7 368.08,148.05 344.03,24.7 314.49,24.7 353.2,223.25 353.42,223.25 382.75,223.25 382.97,223.25 
			421.68,24.7 		"/>
		<polygon points="520.74,50.64 520.74,24.7 468.6,24.7 439.06,24.7 439.06,50.64 439.06,106.8 439.06,131.83 439.06,197.31 
			439.06,223.25 468.6,223.25 520.74,223.25 520.74,197.31 468.6,197.31 468.6,131.83 513.4,131.83 513.4,106.8 468.6,106.8 
			468.6,50.64 		"/>
		<polygon points="142.97,24.7 142.97,106.8 102.16,106.8 102.16,24.7 72.62,24.7 72.62,223.25 102.16,223.25 102.16,131.83 
			142.97,131.83 142.97,223.25 172.51,223.25 172.51,24.7 		"/>
		<path d="M267.55,223.27h29.54L258.38,24.72h-0.22h-29.32h-0.22l-38.71,198.55h29.54l7.6-38.96h32.91L267.55,223.27z
			 M231.93,159.28l11.58-59.37l11.57,59.37H231.93z"/>
	</g>
	<g>
		<g>
			<rect x="25.69" y="24.7" class="st0" width="29.54" height="53.63"/>
			<rect x="25.69" y="103.35" class="st0" width="29.54" height="119.9"/>
		</g>
		<g>
			<polygon class="st0" points="810.69,86.95 810.69,59.82 781.16,59.82 781.16,118.95 			"/>
			<polygon class="st0" points="810.69,134.83 810.69,97.62 781.16,129.62 781.16,134.83 			"/>
			<path class="st0" d="M850.8,24.63v27.95h11.14c1.36-2.92,4.32-4.94,7.75-4.94c4.73,0,8.56,3.83,8.56,8.56
				c0,4.73-3.83,8.56-8.56,8.56c-3.43,0-6.38-2.02-7.75-4.94H850.8v12.69h29.53V24.63H850.8z"/>
			<rect x="781.16" y="24.63" class="st0" width="29.53" height="27.95"/>
			<path class="st0" d="M864.75,143.17c-2.98,0-5.49-2-6.27-4.72h-7.67v34.31h29.53V79.74H850.8v55.09h7.67
				c0.78-2.73,3.29-4.72,6.27-4.72c3.61,0,6.53,2.92,6.53,6.53C871.28,140.24,868.36,143.17,864.75,143.17z"/>
			<rect x="781.16" y="138.44" class="st0" width="29.53" height="34.31"/>
			<path class="st0" d="M870.38,209.07L870.38,209.07L870.38,209.07h-62.6c-1.1,2.05-3.27,3.44-5.75,3.44
				c-0.58,0-1.15-0.08-1.69-0.23l-9.05,9.81c1.85,0.74,3.86,1.16,5.97,1.16h66.99c8.88,0,16.09-7.2,16.09-16.09v-8.88L870.38,209.07
				z"/>
			<path class="st0" d="M795.55,206.8c-0.03-0.27-0.06-0.55-0.06-0.83c0-3.61,2.92-6.53,6.53-6.53c2.49,0,4.65,1.39,5.75,3.44h58.47
				l14.08-15.26v-7.63H850.8v17.11h-40.11v-17.11h-29.53v27.17c0,4.14,1.57,7.89,4.14,10.74L795.55,206.8z"/>
		</g>
		<g>
			<path class="st0" d="M744.39,24.63h-83.08v51.66h11.68c1.1-2.05,3.27-3.44,5.75-3.44c0.58,0,1.15,0.08,1.69,0.23l10.41-11.28
				V50.78h40.11v1.81h29.53V40.72C760.47,31.83,753.27,24.63,744.39,24.63z"/>
			<path class="st0" d="M690.84,97.74V72.47l-5.62,6.09c0.03,0.27,0.06,0.55,0.06,0.83c0,3.61-2.92,6.53-6.53,6.53
				c-2.49,0-4.65-1.39-5.75-3.44h-11.68v15.26H690.84z"/>
			<polygon class="st0" points="743.42,134.85 760.47,134.85 760.47,59.82 730.95,59.82 730.95,121.72 			"/>
			<path class="st0" d="M741.02,138.44L741.02,138.44L741.02,138.44l-12.05-12.69h-38.14v-24.4h-29.53v30.09h26.73v0l0,0
				l18.87,20.45h38.83c7.7,0,14.02-5.92,14.66-13.45H741.02z"/>
			<polygon class="st0" points="690.84,204.79 690.84,151.9 697.07,151.9 683.91,137.63 661.31,137.63 661.31,204.79 			"/>
			<rect x="661.31" y="212.02" class="st0" width="29.53" height="11.23"/>
		</g>
		<g>
			<rect x="611.08" y="83.18" class="st0" width="29.53" height="6.85"/>
			<path class="st0" d="M640.61,192.48v-36.1h-29.53v24.64h10.34c1.1-2.05,3.27-3.44,5.75-3.44c3.61,0,6.53,2.92,6.53,6.53
				c0,0.28-0.02,0.56-0.06,0.83L640.61,192.48z"/>
			<path class="st0" d="M628.86,190.42c-0.54,0.14-1.1,0.23-1.69,0.23c-2.49,0-4.65-1.39-5.75-3.44h-10.34v9.89h-40.11v-9.89h-29.53
				v19.95c0,8.88,7.2,16.09,16.09,16.09h66.99c8.88,0,16.09-7.2,16.09-16.09v-4.01L628.86,190.42z"/>
			<rect x="541.44" y="137.68" class="st0" width="29.53" height="43.34"/>
			<path class="st0" d="M555.44,81.64c-0.99,0.49-2.11,0.78-3.3,0.78c-3.48,0-6.39-2.4-7.2-5.63h-3.5v53.65h29.53V97.17
				L555.44,81.64z"/>
			<path class="st0" d="M570.35,43.6h-28.91v29.58h3.5c0.81-3.23,3.72-5.63,7.2-5.63c4.11,0,7.43,3.33,7.43,7.43
				c0,1.6-0.51,3.09-1.38,4.3l12.77,12.77V50.67h5.9L570.35,43.6z"/>
			<path class="st0" d="M624.52,24.63h-66.99c-7.75,0-14.22,5.48-15.74,12.78h32.69v0l0,0l12.23,13.26h24.36v21.54
				c0,2.16,1.75,3.91,3.91,3.91h21.7c2.16,0,3.91-1.75,3.91-3.91V40.72C640.61,31.83,633.4,24.63,624.52,24.63z"/>
		</g>
	</g>
</g>
</svg>
