<?xml version="1.0" encoding="utf-8"?>
<!-- Generator: Adobe Illustrator 27.0.0, SVG Export Plug-In . SVG Version: 6.00 Build 0)  -->
<svg version="1.1" id="Layer_1" xmlns="http://www.w3.org/2000/svg" xmlns:xlink="http://www.w3.org/1999/xlink" x="0px" y="0px"
	 viewBox="0 0 75.61 75.61" style="enable-background:new 0 0 75.61 75.61;" xml:space="preserve">
<style type="text/css">
	.st0{fill:#C81E23;}
</style>
<g>
	<g>
		<g>
			<polygon points="52.41,6.56 49.48,21.6 46.55,6.56 42.95,6.56 47.67,30.76 47.69,30.76 51.27,30.76 51.3,30.76 56.01,6.56 			"/>
			<polygon points="68.09,9.72 68.09,6.56 61.73,6.56 58.13,6.56 58.13,9.72 58.13,16.57 58.13,19.62 58.13,27.6 58.13,30.76 
				61.73,30.76 68.09,30.76 68.09,27.6 61.73,27.6 61.73,19.62 67.2,19.62 67.2,16.57 61.73,16.57 61.73,9.72 			"/>
			<polygon points="22.04,6.56 22.04,16.57 17.06,16.57 17.06,6.56 13.46,6.56 13.46,30.76 17.06,30.76 17.06,19.62 22.04,19.62 
				22.04,30.76 25.64,30.76 25.64,6.56 			"/>
			<path d="M37.23,30.76h3.6l-4.72-24.2h-0.03h-3.57h-0.03l-4.72,24.2h3.6l0.93-4.75h4.01L37.23,30.76z M32.88,22.97l1.41-7.24
				l1.41,7.24H32.88z"/>
		</g>
		<g>
			<rect x="7.74" y="6.56" class="st0" width="3.6" height="6.54"/>
			<rect x="7.74" y="16.15" class="st0" width="3.6" height="14.62"/>
		</g>
	</g>
	<g>
		<g>
			<polygon class="st0" points="55.69,45.89 55.69,41.06 50.43,41.06 50.43,51.59 			"/>
			<polygon class="st0" points="55.69,54.41 55.69,47.79 50.43,53.49 50.43,54.41 			"/>
			<path class="st0" d="M62.83,34.79v4.98h1.98c0.24-0.52,0.77-0.88,1.38-0.88c0.84,0,1.52,0.68,1.52,1.52
				c0,0.84-0.68,1.52-1.52,1.52c-0.61,0-1.14-0.36-1.38-0.88h-1.98v2.26h5.26v-8.53H62.83z"/>
			<rect x="50.43" y="34.79" class="st0" width="5.26" height="4.98"/>
			<path class="st0" d="M65.32,55.9c-0.53,0-0.98-0.36-1.12-0.84h-1.37v6.11h5.26V44.61h-5.26v9.81h1.37
				c0.14-0.49,0.59-0.84,1.12-0.84c0.64,0,1.16,0.52,1.16,1.16S65.96,55.9,65.32,55.9z"/>
			<rect x="50.43" y="55.06" class="st0" width="5.26" height="6.11"/>
			<path class="st0" d="M66.32,67.64L66.32,67.64L66.32,67.64H55.17c-0.2,0.36-0.58,0.61-1.02,0.61c-0.1,0-0.2-0.01-0.3-0.04
				l-1.61,1.75c0.33,0.13,0.69,0.21,1.06,0.21h11.93c1.58,0,2.86-1.28,2.86-2.86v-1.58L66.32,67.64z"/>
			<path class="st0" d="M52.99,67.23c-0.01-0.05-0.01-0.1-0.01-0.15c0-0.64,0.52-1.16,1.16-1.16c0.44,0,0.83,0.25,1.02,0.61h10.41
				l2.51-2.72v-1.36h-5.26v3.05h-7.14v-3.05h-5.26v4.84c0,0.74,0.28,1.41,0.74,1.91L52.99,67.23z"/>
		</g>
		<g>
			<path class="st0" d="M43.88,34.79H29.09v9.2h2.08c0.2-0.36,0.58-0.61,1.02-0.61c0.1,0,0.2,0.01,0.3,0.04l1.85-2.01v-1.96h7.14
				v0.32h5.26v-2.11C46.75,36.07,45.46,34.79,43.88,34.79z"/>
			<path class="st0" d="M34.35,47.81v-4.5l-1,1.08c0.01,0.05,0.01,0.1,0.01,0.15c0,0.64-0.52,1.16-1.16,1.16
				c-0.44,0-0.83-0.25-1.02-0.61h-2.08v2.72H34.35z"/>
			<polygon class="st0" points="43.71,54.42 46.75,54.42 46.75,41.06 41.49,41.06 41.49,52.08 			"/>
			<path class="st0" d="M43.28,55.06L43.28,55.06L43.28,55.06l-2.15-2.26h-6.79v-4.34h-5.26v5.36h4.76v0l0,0l3.36,3.64h6.92
				c1.37,0,2.5-1.05,2.61-2.4H43.28z"/>
			<polygon class="st0" points="34.35,66.87 34.35,57.45 35.46,57.45 33.11,54.91 29.09,54.91 29.09,66.87 			"/>
			<rect x="29.09" y="68.16" class="st0" width="5.26" height="2"/>
		</g>
		<g>
			<rect x="20.14" y="45.22" class="st0" width="5.26" height="1.22"/>
			<path class="st0" d="M25.4,64.68v-6.43h-5.26v4.39h1.84c0.2-0.36,0.58-0.61,1.02-0.61c0.64,0,1.16,0.52,1.16,1.16
				c0,0.05,0,0.1-0.01,0.15L25.4,64.68z"/>
			<path class="st0" d="M23.31,64.31c-0.1,0.03-0.2,0.04-0.3,0.04c-0.44,0-0.83-0.25-1.02-0.61h-1.84v1.76H13v-1.76H7.74v3.55
				c0,1.58,1.28,2.86,2.86,2.86h11.93c1.58,0,2.86-1.28,2.86-2.86v-0.71L23.31,64.31z"/>
			<rect x="7.74" y="54.92" class="st0" width="5.26" height="7.72"/>
			<path class="st0" d="M10.23,44.94c-0.18,0.09-0.38,0.14-0.59,0.14c-0.62,0-1.14-0.43-1.28-1H7.74v9.55H13v-5.92L10.23,44.94z"/>
			<path class="st0" d="M12.89,38.17H7.74v5.27h0.62c0.14-0.58,0.66-1,1.28-1c0.73,0,1.32,0.59,1.32,1.32
				c0,0.29-0.09,0.55-0.25,0.77L13,46.8v-7.37h1.05L12.89,38.17z"/>
			<path class="st0" d="M22.54,34.79H10.61c-1.38,0-2.53,0.98-2.8,2.28h5.82v0l0,0l2.18,2.36h4.34v3.84c0,0.38,0.31,0.7,0.7,0.7
				h3.86c0.38,0,0.7-0.31,0.7-0.7v-5.61C25.4,36.07,24.12,34.79,22.54,34.79z"/>
		</g>
	</g>
</g>
</svg>
